# xmcd
# 
# Track frame offsets:
#     150
#     29420
#     56475
#     86000
#     111310
#     138737
#     165875
#     189062
#     221262
#     251137
# 
# Disc length: 3699
# 
# Revision: 4
# Processed by: cddbd v1.5.2PL0 Copyright (c) Steve Scherf et al.
# Submitted via: BonkEnc v1.0.8
# 
DISCID=830e710a
DTITLE=Enrico Pieranunzi, Marc Johnson, Paul Motian - The Night Gone By
DYEAR=1996
DGENRE=Contemporary Jazz
TTITLE0=Yesterdays
TTITLE1=The Night Gone By
TTITLE2=Body And Soul
TTITLE3=Someday My Prince Will Come
TTITLE4=Canzone di Nausicaa
TTITLE5=A Nameless Gate
TTITLE6=It Speaks For Itself
TTITLE7=If I Should Lose You
TTITLE8=Over the Rainbow
TTITLE9=L'Heure Oblique
EXTD=enroco pieranunzi (piano) marc johnson (bass) paul motian (drums) YEAR: 1996
EXTT0=
EXTT1=
EXTT2=
EXTT3=
EXTT4=
EXTT5=
EXTT6=
EXTT7=
EXTT8=
EXTT9=
PLAYORDER=
